HIERARCHY
ROOT Hips
{
	OFFSET 0.00000 0.00000 0.00000
	CHANNELS 6 Xposition Yposition Zposition Zrotation Yrotation Xrotation 
	JOINT LHipJoint
	{
		OFFSET 0 0 0
		CHANNELS 3 Zrotation Yrotation Xrotation
		JOINT LeftHip
		{
			OFFSET 1.75344 -1.53157 0.77399
			CHANNELS 3 Zrotation Yrotation Xrotation
			JOINT LeftKnee
			{
				OFFSET 2.25415 -6.19323 0.00000
				CHANNELS 3 Zrotation Yrotation Xrotation
				JOINT LeftAnkle
				{
					OFFSET 2.30342 -6.32861 0.00000
					CHANNELS 3 Zrotation Yrotation Xrotation
					JOINT LeftToe
					{
						OFFSET 0.10958 -0.30108 1.49206
						CHANNELS 3 Zrotation Yrotation Xrotation
						End Site
						{
							OFFSET 0.00000 -0.00000 0.77783
						}
					}
				}
			}
		}
	}
	JOINT RHipJoint
	{
		OFFSET 0 0 0
		CHANNELS 3 Zrotation Yrotation Xrotation
		JOINT RightHip
		{
			OFFSET -1.81912 -1.53156 0.77399
			CHANNELS 3 Zrotation Yrotation Xrotation
			JOINT RightKnee
			{
				OFFSET -2.22882 -6.12365 0.00000
				CHANNELS 3 Zrotation Yrotation Xrotation
				JOINT RightAnkle
				{
					OFFSET -2.21943 -6.09785 0.00000
					CHANNELS 3 Zrotation Yrotation Xrotation
					JOINT RightToe
					{
						OFFSET -0.18931 -0.52012 1.59379
						CHANNELS 3 Zrotation Yrotation Xrotation
						End Site
						{
							OFFSET -0.00000 -0.00000 0.84686
						}
					}
				}
			}
		}
	}
	JOINT lowerback
	{
		OFFSET 0 0 0
		CHANNELS 3 Zrotation Yrotation Xrotation
		JOINT Chest
		{
			OFFSET -0.00200 1.66634 -0.14248
			CHANNELS 3 Zrotation Yrotation Xrotation
			JOINT Chest2
			{
				OFFSET -0.00875 1.64542 0.09514
				CHANNELS 3 Zrotation Yrotation Xrotation
				JOINT lowerneck
				{
					OFFSET 0 0 0
					CHANNELS 3 Zrotation Yrotation Xrotation
					JOINT Neck
					{
						OFFSET 0.02257 1.59605 0.00839
						CHANNELS 3 Zrotation Yrotation Xrotation
						JOINT Head
						{
							OFFSET -0.10214 1.57530 -0.23335
							CHANNELS 3 Zrotation Yrotation Xrotation
							End Site
							{
								OFFSET -0.03588 1.60717 -0.08062
							}
						}
					}
				}
				JOINT LeftCollar
				{
					OFFSET 0 0 0
					CHANNELS 3 Zrotation Yrotation Xrotation
					JOINT LeftShoulder
					{
						OFFSET 2.54983 1.10186 0.40078
CHANNELS 3 Zrotation Xrotation Yrotation
						JOINT LeftElbow
						{
OFFSET 0 -4.288400 0.000000
CHANNELS 3 Zrotation Xrotation Yrotation
							JOINT LeftWrist
							{
OFFSET 0 -3.065520 -0.000000
CHANNELS 3 Zrotation Xrotation Yrotation
								JOINT lhand
								{
									OFFSET 0 0 0
CHANNELS 3 Zrotation Xrotation Yrotation
									JOINT LFingers
									{
OFFSET 0 -0.753040 0.000000
CHANNELS 3 Zrotation Xrotation Yrotation
										End Site
										{
OFFSET 0 -0.607120 0.000000
										}
									}
								}
								JOINT LThumb
								{
OFFSET 0 0.000000 0.000000
CHANNELS 3 Zrotation Xrotation Yrotation
									End Site
									{
OFFSET 0 -0.616390 0.616390
									}
								}
							}
						}
					}
				}
				JOINT RightCollar
				{
					OFFSET 0 0 0
					CHANNELS 3 Zrotation Yrotation Xrotation
					JOINT RightShoulder
					{
						OFFSET -2.60909 1.35448 0.21802
CHANNELS 3 Zrotation Xrotation Yrotation
						JOINT RightElbow
						{
OFFSET 0 -4.521720 -0.000000
CHANNELS 3 Zrotation Xrotation Yrotation
							JOINT RightWrist
							{
OFFSET 0 -2.891400 0.000000
CHANNELS 3 Zrotation Xrotation Yrotation
								JOINT rhand
								{
									OFFSET 0 0 0
CHANNELS 3 Zrotation Xrotation Yrotation
									JOINT RFingers
									{
OFFSET 0 -0.680540 0.000000
CHANNELS 3 Zrotation Xrotation Yrotation
										End Site
										{
OFFSET 0 -0.548670 0.000000
										}
									}
								}
								JOINT RThumb
								{
OFFSET 0 0.000000 0.000000
CHANNELS 3 Zrotation Xrotation Yrotation
									End Site
									{
OFFSET 0 -0.557050 0.557050
									}
								}
							}
						}
					}
				}
			}
		}
	}
}
MOTION
Frames: 10
Frame Time: 0.008333333333333333
8.361100 15.216900 42.000800 -178.713000 -3.433400 -178.875000 0.000000 0.000000 0.000000 -20.183200 -15.484400 -5.695800 2.348500 9.557000 27.553700 1.875700 1.331500 -26.404000 4.924300 -13.298000 -40.494400 0.000000 0.000000 0.000000 27.395700 9.058100 -2.429600 -1.469800 -7.661200 21.689800 -0.381500 -18.404500 -28.990800 -0.025400 -1.029100 2.828800 1.808400 1.863400 7.130300 0.493600 2.672400 -3.688200 -0.859100 1.205200 -7.824600 -6.992900 -1.549800 -5.409600 5.936900 -2.255500 10.382900 2.843700 -1.154800 4.125600 0.000000 0.000000 0.000000 3.762700 12.988900 -26.281900 23.740500 -34.888700 7.557600 11.114200 5.064300 33.857300 0.000000 0.000000 0.000000 -7.125000 0.000000 0.000000 -11.779000 -3.742100 -12.788700 0.000000 0.000000 0.000000 -6.916000 11.894700 33.472300 -21.372300 -32.260300 -6.247500 -8.432700 21.588900 54.423300 0.000000 0.000000 0.000000 7.125000 0.000000 -0.000000 73.454400 74.746700 -57.778300
8.359632 15.212549 41.998965 -178.714048 -3.384282 -178.913791 0.000000 0.000000 0.000000 -20.195729 -15.429096 -5.718184 2.368577 9.594743 27.674215 1.890692 1.274204 -26.485776 4.928127 -13.302351 -40.511070 0.000000 0.000000 0.000000 27.364877 8.933496 -2.548962 -1.498789 -7.732649 21.905197 -0.421654 -18.243202 -29.081802 -0.019267 -0.885310 2.433338 1.807928 1.836928 7.235718 0.513310 2.642153 -3.648832 -0.837241 1.191623 -7.845359 -7.025244 -1.674142 -5.361897 5.870116 -2.404427 10.226791 2.820163 -1.230129 4.080204 0.000000 0.000000 0.000000 3.820572 12.973436 -26.272097 23.816300 -34.969323 7.601057 9.945795 5.394498 33.483540 0.000000 0.000000 0.000000 -7.125000 0.000000 0.000000 -12.393318 -3.213594 -13.375026 0.000000 0.000000 0.000000 -7.020160 11.823932 33.495680 -21.405902 -32.299039 -6.265428 -8.273656 21.376544 54.504290 0.000000 0.000000 0.000000 7.125000 0.000000 0.000000 73.799538 74.704816 -58.057388
8.358150 15.208198 41.997000 -178.714952 -3.335333 -178.946531 0.000000 0.000000 0.000000 -20.206659 -15.374978 -5.745438 2.388102 9.631430 27.791370 1.904663 1.227971 -26.564662 4.935623 -13.310856 -40.543634 0.000000 0.000000 0.000000 27.333148 8.810233 -2.674288 -1.527632 -7.803629 22.119243 -0.462399 -18.071823 -29.165349 -0.013850 -0.758736 2.085230 1.812448 1.812590 7.333908 0.528266 2.614724 -3.612311 -0.823340 1.179000 -7.864457 -7.056779 -1.795957 -5.310321 5.809728 -2.551224 10.071457 2.798640 -1.304213 4.034299 0.000000 0.000000 0.000000 3.882696 12.965476 -26.267736 23.904640 -35.063100 7.651776 8.768729 5.716349 33.092633 0.000000 0.000000 0.000000 -7.125000 0.000000 0.000000 -13.012517 -2.669374 -13.961738 0.000000 0.000000 0.000000 -7.117000 11.760639 33.520115 -21.441358 -32.339893 -6.284358 -8.092660 21.132409 54.589937 0.000000 0.000000 0.000000 7.125000 0.000000 0.000000 74.168011 74.655742 -58.350598
8.356525 15.203847 41.993750 -178.714427 -3.288050 -178.919796 0.000000 0.000000 0.000000 -20.201889 -15.332518 -5.820557 2.402204 9.657746 27.875506 1.908595 1.290456 -26.615143 4.979185 -13.360184 -40.732401 0.000000 0.000000 0.000000 27.292522 8.700150 -2.858233 -1.555048 -7.869994 22.320014 -0.508949 -17.801385 -29.175623 -0.015475 -0.801354 2.202495 1.866022 1.809235 7.361062 0.496499 2.614986 -3.603766 -0.887661 1.175750 -7.867235 -7.080368 -1.892935 -5.220682 5.812191 -2.677086 9.923735 2.796910 -1.366069 3.983398 0.000000 0.000000 0.000000 3.986593 13.031264 -26.316855 24.116210 -35.286150 7.773863 7.506543 5.956174 32.533199 0.000000 0.000000 0.000000 -7.125000 0.000000 0.000000 -13.679675 -1.970711 -14.552258 0.000000 0.000000 0.000000 -7.141899 11.770809 33.554922 -21.495036 -32.401540 -6.313137 -7.695940 20.575963 54.721356 0.000000 0.000000 0.000000 7.125000 0.000000 0.000000 74.765817 74.536013 -58.782597
8.355074 15.200145 41.990141 -178.721746 -3.249878 -178.870501 0.000000 0.000000 0.000000 -20.198988 -15.308406 -5.916532 2.416624 9.684622 27.961461 1.913824 1.346542 -26.672102 5.010478 -13.395626 -40.868029 0.000000 0.000000 0.000000 27.246745 8.619647 -3.052286 -1.582338 -7.935807 22.519255 -0.551470 -17.562541 -29.194990 -0.017391 -0.849656 2.335369 1.911617 1.805793 7.365142 0.458816 2.613109 -3.600489 -0.952659 1.171696 -7.862364 -7.112304 -1.985382 -5.136155 5.841641 -2.798155 9.770756 2.805154 -1.424450 3.931917 0.000000 0.000000 0.000000 4.097966 13.106038 -26.351507 24.262150 -35.440075 7.858053 6.642776 6.131744 32.206094 0.000000 0.000000 0.000000 -7.125000 0.000000 0.000000 -14.139389 -1.546236 -14.972466 0.000000 0.000000 0.000000 -7.158927 11.786120 33.585053 -21.556849 -32.472453 -6.346312 -7.381050 20.116432 54.797002 0.000000 0.000000 0.000000 7.125000 0.000000 0.000000 75.138633 74.435243 -59.022276
8.354393 15.199306 41.984952 -178.763683 -3.251922 -178.721626 0.000000 0.000000 0.000000 -20.204335 -15.365282 -6.104565 2.432455 9.713978 28.055452 1.924780 1.374377 -26.757653 4.987623 -13.369783 -40.769111 0.000000 0.000000 0.000000 27.178231 8.669709 -3.290957 -1.609073 -7.999183 22.711744 -0.576213 -17.463152 -29.254487 -0.020588 -0.923045 2.537136 1.921996 1.801966 7.267377 0.395020 2.601786 -3.620461 -1.020648 1.164095 -7.823730 -7.181080 -2.057827 -5.074194 5.990201 -2.898069 9.594570 2.857417 -1.467487 3.877871 0.000000 0.000000 0.000000 4.242333 13.220472 -26.322308 24.118412 -35.288893 7.774966 7.537545 6.023705 32.904443 0.000000 0.000000 0.000000 -7.125000 0.000000 0.000000 -13.683486 -2.331969 -14.640957 0.000000 0.000000 0.000000 -7.141209 11.824125 33.594541 -21.654561 -32.584267 -6.398890 -7.427337 20.084665 54.626477 0.000000 0.000000 0.000000 7.125000 0.000000 0.000000 74.518391 74.418154 -58.413095
8.353871 15.198613 41.980880 -178.801117 -3.142086 -178.564763 0.000000 0.000000 0.000000 -20.202042 -15.347896 -6.321124 2.448983 9.744510 28.153320 1.937449 1.413164 -26.858846 4.957389 -13.335472 -40.637978 0.000000 0.000000 0.000000 27.106086 8.785028 -3.531110 -1.635662 -8.061906 22.902403 -0.597237 -17.354931 -29.278212 -0.021288 -0.936057 2.572877 1.906668 1.831502 7.187027 0.348377 2.634021 -3.642424 -1.062814 1.179341 -7.798124 -7.265760 -2.129430 -5.027134 6.144470 -2.994120 9.414317 2.914140 -1.508506 3.825307 0.000000 0.000000 0.000000 4.356823 13.312975 -26.359079 24.127978 -35.297958 7.780942 7.801542 5.934431 32.984075 0.000000 0.000000 0.000000 -7.125000 0.000000 0.000000 -13.546898 -2.443461 -14.506586 0.000000 0.000000 0.000000 -7.150259 11.844106 33.618727 -21.753086 -32.696792 -6.451991 -7.601525 20.173202 54.406832 0.000000 0.000000 0.000000 7.125000 0.000000 0.000000 73.676292 74.435691 -57.636653
8.353766 15.198298 41.979727 -178.826803 -2.740334 -178.387057 0.000000 0.000000 0.000000 -20.179815 -15.136746 -6.612111 2.467331 9.778112 28.261307 1.954591 1.480524 -27.000854 4.907904 -13.279067 -40.422791 0.000000 0.000000 0.000000 27.024467 9.070616 -3.775129 -1.661872 -8.122924 23.088287 -0.608560 -17.223670 -29.208597 -0.015469 -0.791533 2.175424 1.824263 1.948085 7.152115 0.346490 2.779908 -3.669577 -1.037599 1.254197 -7.806511 -7.391936 -2.198835 -5.018957 6.313631 -3.080090 9.223454 2.982496 -1.544256 3.776608 0.000000 0.000000 0.000000 4.393361 13.348254 -26.567975 24.537541 -35.725134 8.019298 6.419732 5.894119 31.449354 0.000000 0.000000 0.000000 -7.125000 0.000000 0.000000 -14.243464 -0.795721 -14.886584 0.000000 0.000000 0.000000 -7.229152 11.817056 33.681265 -21.853734 -32.811174 -6.506456 -8.109429 20.575636 54.059021 0.000000 0.000000 0.000000 7.125000 0.000000 0.000000 72.255324 74.543573 -56.423796
8.353448 15.196338 41.977470 -178.843968 -2.518624 -178.277324 0.000000 0.000000 0.000000 -20.164464 -15.008306 -6.814772 2.486511 9.813166 28.373980 1.970009 1.497457 -27.111780 4.874454 -13.240944 -40.277320 0.000000 0.000000 0.000000 26.969321 9.207147 -3.967092 -1.686630 -8.180243 23.263035 -0.630708 -17.107727 -29.232286 -0.011316 -0.685643 1.884248 1.765948 1.993113 7.163719 0.356203 2.834989 -3.674790 -1.002799 1.284145 -7.820360 -7.477658 -2.264231 -5.033456 6.409320 -3.155215 9.045913 3.021940 -1.576076 3.733448 0.000000 0.000000 0.000000 4.409506 13.378227 -26.586973 24.645775 -35.838045 8.082280 6.619473 5.564815 31.072290 0.000000 0.000000 0.000000 -7.125000 0.000000 0.000000 -14.118754 -0.465849 -14.659528 0.000000 0.000000 0.000000 -7.324990 11.762179 33.742874 -21.918517 -32.884791 -6.541517 -8.510861 20.907405 53.781487 0.000000 0.000000 0.000000 7.125000 0.000000 0.000000 71.119244 74.626821 -55.453144
8.352767 15.191567 41.973329 -178.846589 -2.604227 -178.283614 0.000000 0.000000 0.000000 -20.160847 -15.021044 -6.866668 2.507112 9.850699 28.494652 1.982485 1.428314 -27.169652 4.868373 -13.234024 -40.250848 0.000000 0.000000 0.000000 26.959361 9.089253 -4.070204 -1.708909 -8.231248 23.418777 -0.671334 -17.017930 -29.415234 -0.010005 -0.645699 1.774479 1.748754 1.916002 7.254721 0.385716 2.735075 -3.642551 -0.951637 1.237438 -7.843530 -7.494328 -2.322785 -5.086663 6.379597 -3.211829 8.891115 3.012032 -1.601186 3.699741 0.000000 0.000000 0.000000 4.390844 13.399143 -26.281832 24.239671 -35.414538 7.845916 9.518757 4.742229 32.671226 0.000000 0.000000 0.000000 -7.125000 0.000000 0.000000 -12.592211 -2.385443 -13.396293 0.000000 0.000000 0.000000 -7.449751 11.659801 33.802895 -21.922081 -32.888828 -6.543456 -8.730556 21.118555 53.623910 0.000000 0.000000 0.000000 7.125000 0.000000 0.000000 70.469437 74.668024 -54.895912
